# xmcd CD database file
#
# Track frame offsets:
#	150
#	21875
#	47672
#	64385
#	88797
#	105165
#	126495
#	151402
#	178440
#	214637
#
# Disc length: 4440 seconds
#
# Revision: 1
# Processed by: cddbd v1.5.1PL0 Copyright (c) Steve Scherf et al.
# Submitted via: CDex 1.51
#
DISCID=8b11560a
DTITLE=serani poji - オチャメカン
DYEAR=2004
DGENRE=JPop
TTITLE0=ゴーゴー！シューパーガール！
TTITLE1=地球人のカラダ
TTITLE2=shopping mania
TTITLE3=ボンバーミンミ
TTITLE4=夜の喫茶店
TTITLE5=さよならいちごちゃん
TTITLE6=Gの世界
TTITLE7=EVE
TTITLE8=クレームブリュレ
TTITLE9=data track
EXTD=YEAR: 2004
EXTT0=
EXTT1=
EXTT2=
EXTT3=
EXTT4=
EXTT5=
EXTT6=
EXTT7=
EXTT8=
EXTT9=
PLAYORDER=
